<?xml version="1.0" standalone="no"?>
<!DOCTYPE svg PUBLIC "-//W3C//DTD SVG 20010904//EN"
 "http://www.w3.org/TR/2001/REC-SVG-20010904/DTD/svg10.dtd">
<svg version="1.0" xmlns="http://www.w3.org/2000/svg"
 width="1024.000000pt" height="1024.000000pt" viewBox="0 0 1024.000000 1024.000000"
 preserveAspectRatio="xMidYMid meet">
<metadata>
Created by potrace 1.11, written by Peter Selinger 2001-2013
</metadata>
<g transform="translate(0.000000,1024.000000) scale(0.100000,-0.100000)"
fill="#000000" stroke="none">
<path d="M1380 10225 c-167 -26 -260 -52 -403 -112 -98 -41 -281 -143 -332
-185 -144 -118 -295 -261 -295 -280 0 -4 -6 -13 -13 -20 -99 -101 -231 -357
-283 -548 -52 -193 -49 18 -49 -3905 1 -2013 4 -3688 8 -3723 17 -148 71 -353
128 -481 236 -533 685 -876 1254 -959 69 -10 7385 -9 7460 1 324 43 644 201
880 432 160 157 247 277 335 460 53 112 111 275 124 349 9 50 25 129 33 161 4
17 8 1690 9 3720 2 4019 6 3762 -55 3962 -54 178 -95 269 -186 409 -252 388
-657 646 -1130 719 -131 20 -7355 20 -7485 0z"/>
</g>
</svg>
